<?xml version="1.0" encoding="utf-8"?><svg xmlns="http://www.w3.org/2000/svg" xmlns:xlink="http://www.w3.org/1999/xlink"><symbol id="cloud1" viewBox="0 0 302.3 122.9" xmlns="http://www.w3.org/2000/svg"><style>.ast0{clip-path:url(#aSVGID_2_);fill:#fff}</style><defs><path id="aSVGID_1_" d="M0 0h302.3v122.9H0z"/></defs><clipPath id="aSVGID_2_"><use xlink:href="#aSVGID_1_" overflow="visible"/></clipPath><path class="ast0" d="M28.3 122.9H274c15.6 0 28.3-12.7 28.3-28.3S289.7 66.3 274 66.3c-6 0-11.5 1.9-16.1 5 .2-1.5.3-3.1.3-4.6 0-22.6-18.3-40.9-40.9-40.9-9.7 0-18.6 3.4-25.7 9.1C184 14.5 164.3 0 141.3 0c-26.2 0-48 18.7-52.8 43.4C83.1 40 76.8 38 69.9 38c-17.3 0-31.7 12.7-34.3 29.2-2.3-.6-4.8-.9-7.3-.9C12.7 66.3 0 79 0 94.6s12.7 28.3 28.3 28.3"/></symbol><symbol id="cloud2" viewBox="0 0 225.7 107.5" xmlns="http://www.w3.org/2000/svg"><style>.bst0{clip-path:url(#bSVGID_2_);fill:#fff}</style><defs><path id="bSVGID_1_" d="M0 0h225.7v107.5H0z"/></defs><clipPath id="bSVGID_2_"><use xlink:href="#bSVGID_1_" overflow="visible"/></clipPath><path class="bst0" d="M204.2 64.5c-1.6 0-3.1.2-4.6.5-2.9-10.7-12.7-18.5-24.3-18.5-.8 0-1.7 0-2.5.1-4.8-11.3-15.9-19.2-29-19.2-6.3 0-12.1 1.9-17.1 5C121.8 13.8 104.6 0 84.3 0 62.6 0 44.6 15.6 40.9 36.2c-1.7-.2-3.4-.4-5.1-.4C16.1 35.9 0 51.9 0 71.7s16.1 35.8 35.9 35.8h169c11.6-.3 20.9-9.8 20.9-21.5-.1-11.8-9.7-21.5-21.6-21.5"/></symbol><symbol id="cloud3" viewBox="0 0 212.9 112.7" xmlns="http://www.w3.org/2000/svg"><style>.cst0{clip-path:url(#cSVGID_2_);fill:#fff}</style><defs><path id="cSVGID_1_" d="M0 0h212.9v112.7H0z"/></defs><clipPath id="cSVGID_2_"><use xlink:href="#cSVGID_1_" overflow="visible"/></clipPath><path class="cst0" d="M182.1 112.7c17 0 30.8-13.8 30.8-30.8 0-13.2-8.4-24.5-20.1-28.9v-1.7c0-28.3-23-51.3-51.3-51.3-15.7 0-29.8 7.1-39.2 18.2-6.5-3.2-13.8-5-21.5-5-19.4 0-36.2 11.3-44 27.8h-1C16 41 0 57 0 76.8s16 35.8 35.8 35.8h146.3z"/></symbol><symbol id="cloud4" viewBox="0 0 185.4 107.5" xmlns="http://www.w3.org/2000/svg"><style>.dst0{clip-path:url(#dSVGID_2_);fill:#fff}</style><defs><path id="dSVGID_1_" d="M0 0h185.4v107.5H0z"/></defs><clipPath id="dSVGID_2_"><use xlink:href="#dSVGID_1_" overflow="visible"/></clipPath><path class="dst0" d="M35.8 107.5h113.7c19.8 0 35.8-16.1 35.8-35.8s-16.1-35.8-35.8-35.8c-6.2 0-12 1.6-17.1 4.3C130.5 17.7 111.6 0 88.6 0c-22 0-40.2 16-43.5 37.1-2.9-.8-6-1.2-9.2-1.2C16.1 35.9 0 51.9 0 71.7s16.1 35.8 35.8 35.8"/></symbol><symbol viewBox="0 0 8.94 19.29" id="fb" xmlns="http://www.w3.org/2000/svg"><defs><style>.ecls-1{fill:#fff}</style></defs><g id="eСлой_2" data-name="Слой 2"><g id="eСлой_1-2" data-name="Слой 1"><path id="epath2" class="ecls-1" d="M5.75 19.29V9.82h2.8l.29-3.15h-3.1v-1.9c0-.91.09-1.28 1.39-1.28h1.8V0H6.09C2.73 0 1.93 1.57 1.93 4.43v2.24H0v3.15h1.93v9.47h3.82"/></g></g></symbol><symbol viewBox="0 0 16.13 16.11" id="ig" xmlns="http://www.w3.org/2000/svg"><defs><style>.fcls-1{fill:#fff}</style></defs><g id="fСлой_2" data-name="Слой 2"><path class="fcls-1" d="M14.35 0H1.78A1.78 1.78 0 0 0 0 1.77v12.56a1.78 1.78 0 0 0 1.78 1.78h12.57a1.78 1.78 0 0 0 1.78-1.78V1.77A1.78 1.78 0 0 0 14.35 0zM8.09 5.19c4.16-.31 4.16 6.1 0 5.79-3.86.02-3.86-5.79 0-5.79zm6.26 8.56a.62.62 0 0 1-.62.62H2.45a.62.62 0 0 1-.62-.62V6.83h1.4a5 5 0 1 0 9.72 0h1.4zm0-9.41a.62.62 0 0 1-.62.62h-1.9a.62.62 0 0 1-.62-.62v-1.9a.62.62 0 0 1 .62-.62h1.9a.62.62 0 0 1 .62.62z" id="fsvg4"/></g></symbol><symbol viewBox="0 0 18.11 14.75" id="tw" xmlns="http://www.w3.org/2000/svg"><defs><style>.gcls-1{fill:#fff}</style></defs><g id="gСлой_2" data-name="Слой 2"><g id="gsvg4"><path id="gsvg_1" data-name="svg 1" class="gcls-1" d="M18.11 1.76a7.48 7.48 0 0 1-2.11.58A3.74 3.74 0 0 0 17.61.28a7.55 7.55 0 0 1-2.36.91 3.72 3.72 0 0 0-6.33 3.38A10.52 10.52 0 0 1 1.26.69a3.73 3.73 0 0 0 1.15 5 3.75 3.75 0 0 1-1.68-.5v.05a3.72 3.72 0 0 0 3 3.64 3.86 3.86 0 0 1-1 .13A3.94 3.94 0 0 1 2 8.94a3.71 3.71 0 0 0 3.5 2.58 7.43 7.43 0 0 1-4.61 1.59 8.46 8.46 0 0 1-.89-.05 10.56 10.56 0 0 0 16.26-8.9v-.48a7.47 7.47 0 0 0 1.85-1.92z"/></g></g></symbol><symbol viewBox="0 0 11.09 13.86" id="vk" xmlns="http://www.w3.org/2000/svg"><defs><style>.hcls-1{fill:#fff}</style></defs><g id="hСлой_2" data-name="Слой 2"><path class="hcls-1" d="M11.08 9.62a3.16 3.16 0 0 0-.77-2.24 3.77 3.77 0 0 0-2.05-1.12v-.07A2.94 2.94 0 0 0 9.66 5a3.27 3.27 0 0 0 .51-1.8 3.2 3.2 0 0 0-.37-1.53A2.65 2.65 0 0 0 8.68.6 4.61 4.61 0 0 0 7.21.11 18.35 18.35 0 0 0 4.89 0H0v13.86h5.55a9.08 9.08 0 0 0 2.38-.25 4.88 4.88 0 0 0 1.72-.88 3.76 3.76 0 0 0 1.05-1.3 4 4 0 0 0 .39-1.82zM3.46 2.54H5.1a2.15 2.15 0 0 1 .82.17 1 1 0 0 1 .54.51 1.55 1.55 0 0 1 .17.68 1.94 1.94 0 0 1-.16.81 1.15 1.15 0 0 1-.57.54 2.08 2.08 0 0 1-.74.19h-1.7zm3.82 7.91a1.41 1.41 0 0 1-.69.6 2.92 2.92 0 0 1-1.06.24H3.46V7.85h2.13a2.71 2.71 0 0 1 .87.15 1.56 1.56 0 0 1 .78.55 1.71 1.71 0 0 1 .26 1 1.85 1.85 0 0 1-.22.9z" id="hvk"/></g></symbol></svg>