<?xml version="1.0" encoding="utf-8"?><svg xmlns="http://www.w3.org/2000/svg" xmlns:xlink="http://www.w3.org/1999/xlink"><symbol viewBox="0 0 8.94 19.29" id="fb" xmlns="http://www.w3.org/2000/svg"><defs><style>.acls-1{fill:#fff}</style></defs><title>Ресурс 1</title><g id="aСлой_2" data-name="Слой 2"><g id="aСлой_1-2" data-name="Слой 1"><path id="apath2" class="acls-1" d="M5.75 19.29V9.82h2.8l.29-3.15h-3.1v-1.9c0-.91.09-1.28 1.39-1.28h1.8V0H6.09C2.73 0 1.93 1.57 1.93 4.43v2.24H0v3.15h1.93v9.47h3.82"/></g></g></symbol><symbol viewBox="0 0 16.13 16.11" id="ig" xmlns="http://www.w3.org/2000/svg"><defs><style>.bcls-1{fill:#fff}</style></defs><title>Ресурс 1</title><g id="bСлой_2" data-name="Слой 2"><path class="bcls-1" d="M14.35 0H1.78A1.78 1.78 0 0 0 0 1.77v12.56a1.78 1.78 0 0 0 1.78 1.78h12.57a1.78 1.78 0 0 0 1.78-1.78V1.77A1.78 1.78 0 0 0 14.35 0zM8.09 5.19c4.16-.31 4.16 6.1 0 5.79-3.86.02-3.86-5.79 0-5.79zm6.26 8.56a.62.62 0 0 1-.62.62H2.45a.62.62 0 0 1-.62-.62V6.83h1.4a5 5 0 1 0 9.72 0h1.4zm0-9.41a.62.62 0 0 1-.62.62h-1.9a.62.62 0 0 1-.62-.62v-1.9a.62.62 0 0 1 .62-.62h1.9a.62.62 0 0 1 .62.62z" id="bsvg4"/></g></symbol><symbol viewBox="0 0 18.11 14.75" id="tw" xmlns="http://www.w3.org/2000/svg"><defs><style>.ccls-1{fill:#fff}</style></defs><title>Ресурс 1</title><g id="cСлой_2" data-name="Слой 2"><g id="csvg4"><path id="csvg_1" data-name="svg 1" class="ccls-1" d="M18.11 1.76a7.48 7.48 0 0 1-2.11.58A3.74 3.74 0 0 0 17.61.28a7.55 7.55 0 0 1-2.36.91 3.72 3.72 0 0 0-6.33 3.38A10.52 10.52 0 0 1 1.26.69a3.73 3.73 0 0 0 1.15 5 3.75 3.75 0 0 1-1.68-.5v.05a3.72 3.72 0 0 0 3 3.64 3.86 3.86 0 0 1-1 .13A3.94 3.94 0 0 1 2 8.94a3.71 3.71 0 0 0 3.5 2.58 7.43 7.43 0 0 1-4.61 1.59 8.46 8.46 0 0 1-.89-.05 10.56 10.56 0 0 0 16.26-8.9v-.48a7.47 7.47 0 0 0 1.85-1.92z"/></g></g></symbol><symbol viewBox="0 0 11.09 13.86" id="vk" xmlns="http://www.w3.org/2000/svg"><defs><style>.dcls-1{fill:#fff}</style></defs><title>Ресурс 2</title><g id="dСлой_2" data-name="Слой 2"><path class="dcls-1" d="M11.08 9.62a3.16 3.16 0 0 0-.77-2.24 3.77 3.77 0 0 0-2.05-1.12v-.07A2.94 2.94 0 0 0 9.66 5a3.27 3.27 0 0 0 .51-1.8 3.2 3.2 0 0 0-.37-1.53A2.65 2.65 0 0 0 8.68.6 4.61 4.61 0 0 0 7.21.11 18.35 18.35 0 0 0 4.89 0H0v13.86h5.55a9.08 9.08 0 0 0 2.38-.25 4.88 4.88 0 0 0 1.72-.88 3.76 3.76 0 0 0 1.05-1.3 4 4 0 0 0 .39-1.82zM3.46 2.54H5.1a2.15 2.15 0 0 1 .82.17 1 1 0 0 1 .54.51 1.55 1.55 0 0 1 .17.68 1.94 1.94 0 0 1-.16.81 1.15 1.15 0 0 1-.57.54 2.08 2.08 0 0 1-.74.19h-1.7zm3.82 7.91a1.41 1.41 0 0 1-.69.6 2.92 2.92 0 0 1-1.06.24H3.46V7.85h2.13a2.71 2.71 0 0 1 .87.15 1.56 1.56 0 0 1 .78.55 1.71 1.71 0 0 1 .26 1 1.85 1.85 0 0 1-.22.9z" id="dvk"/></g></symbol></svg>