<svg version="1" xmlns="http://www.w3.org/2000/svg" width="797.333" height="797.333" viewBox="0 0 598.000000 598.000000"><path d="M0 299v299h598V0H0v299zm371.7-16.3c95.3 26.8 173.1 48.9 172.9 49-.2.2-77.6-13.9-172.1-31.2-94.5-17.4-172.5-31.7-173.4-31.8-.9 0-33.8 17.3-73.1 38.5-78.4 42.2-76.8 41.4-75.8 40.3C51.4 346.2 197.5 234 198 234c.3 0 78.4 21.9 173.7 48.7zm.2 32.5c95.4 17.8 172.3 32.4 171 32.6-1.3.1-79.5-6.9-173.7-15.6l-171.3-15.8-73.2 19.7c-40.3 10.9-73.5 19.7-73.9 19.6-.8-.2 145-72.4 146.7-72.7.6 0 79 14.4 174.4 32.2zm.9 32.5L544 363.5l-23.7.3c-13.1.1-92-.4-175.3-1.2-140.9-1.3-179.4-1.2-273.8.7-11.7.3-21.1.3-20.8 0 .8-.9 143.1-31.1 147.1-31.2 2.2-.1 81.1 6.9 175.3 15.6z"/></svg>