<svg width="165" height="45" viewBox="0 0 165 45" fill="none" xmlns="http://www.w3.org/2000/svg"><path fill-rule="evenodd" clip-rule="evenodd" d="M68.927 19.689c-.056.043-.17.064-.343.064h-1.41c-.149 0-.257-.024-.325-.073-.069-.049-.102-.153-.102-.312v-5.383h-5.77v5.383c0 .171-.032.278-.094.32-.061.044-.179.065-.352.065h-1.41a.57.57 0 0 1-.315-.073c-.074-.049-.112-.153-.112-.312V7.32c0-.159.038-.262.112-.311a.573.573 0 0 1 .315-.073h1.41c.173 0 .29.02.352.063s.093.15.093.32v4.744h5.77V7.32c0-.159.034-.262.103-.311.068-.05.176-.073.325-.073h1.41c.173 0 .287.02.343.063.055.043.083.15.083.32v12.05c0 .17-.028.277-.083.32zM80.514 19.642c-.05.074-.155.11-.315.11H74.91c-.656 0-1.194-.09-1.614-.274a2.673 2.673 0 0 1-1.011-.732 2.612 2.612 0 0 1-.53-1.044c-.098-.39-.148-.8-.148-1.227v-6.262c0-.427.059-.84.177-1.236.117-.397.309-.748.575-1.053.266-.305.609-.55 1.03-.732.42-.183.927-.275 1.521-.275h5.176c.161 0 .264.034.307.1.043.068.065.175.065.321v1.154c0 .159-.022.265-.065.32-.043.055-.146.082-.307.082h-4.935c-.47 0-.8.104-.992.312-.192.208-.288.507-.288.897v1.923h5.603c.161 0 .263.03.306.091.044.062.065.177.065.348v1.007c0 .147-.021.254-.065.32-.043.068-.145.101-.306.101h-5.603v2.661c0 .389.102.684.306.884.204.2.529.3.974.3H80.2c.173 0 .281.031.325.093.043.062.064.18.064.351v1.146c0 .135-.025.24-.074.314zM91.247 8.803c-.044.049-.133.073-.27.073h-3.525v10.492c0 .171-.027.278-.083.32-.055.043-.17.065-.343.065h-1.447c-.149 0-.257-.025-.325-.074-.068-.048-.102-.152-.102-.31V8.875h-3.45c-.137 0-.223-.024-.261-.073-.036-.049-.055-.135-.055-.257V7.283c0-.134.019-.226.055-.275.038-.048.124-.073.26-.073h9.277c.136 0 .225.025.269.073.043.05.065.14.065.275v1.263c0 .122-.022.208-.065.257zM100.793 13.362c0-.61-.046-1.193-.139-1.748a4.483 4.483 0 0 0-.5-1.474 2.694 2.694 0 0 0-1.003-1.017c-.426-.25-.974-.375-1.642-.375-.569 0-1.064.119-1.484.357-.42.238-.77.565-1.048.98a4.528 4.528 0 0 0-.622 1.437 7.183 7.183 0 0 0-.204 1.749c0 .708.052 1.349.158 1.922.104.574.287 1.066.547 1.475.26.408.603.723 1.03.942.427.22.956.33 1.586.33.631 0 1.16-.128 1.586-.384.427-.257.77-.596 1.03-1.017.26-.421.442-.906.548-1.456.104-.549.157-1.122.157-1.72zm2.338-.073c0 2.124-.473 3.766-1.419 4.926-.946 1.16-2.378 1.74-4.295 1.74-1.868 0-3.266-.56-4.194-1.676-.927-1.117-1.391-2.756-1.391-4.916 0-1.05.14-1.984.417-2.802.279-.818.668-1.51 1.17-2.078a5.03 5.03 0 0 1 1.78-1.3c.687-.3 1.445-.45 2.273-.45.928 0 1.747.15 2.459.45.71.299 1.301.732 1.771 1.3.47.567.826 1.257 1.068 2.069.241.812.361 1.724.361 2.737zM107.064 8.162c.024-.44.133-.753.324-.943.192-.189.48-.283.863-.283h6.086c.791 0 1.187.409 1.187 1.226v11.28c0 .134-.024.22-.074.256-.05.037-.142.055-.278.055h-1.577a.505.505 0 0 1-.27-.055c-.055-.037-.083-.122-.083-.256V8.895h-4.1l-.111 1.593c-.099 1.367-.2 2.588-.304 3.662-.104 1.074-.286 2.008-.543 2.801-.257.794-.632 1.447-1.124 1.96-.493.512-1.172.897-2.037 1.153a.565.565 0 0 1-.306-.009c-.08-.03-.146-.113-.195-.247l-.39-1.08a.598.598 0 0 1-.009-.275c.019-.073.095-.14.232-.201.52-.22.925-.5 1.215-.843.29-.341.516-.8.678-1.373.16-.574.28-1.291.361-2.152.08-.86.17-1.925.27-3.195l.185-2.527zM126.732 13.362c0-.61-.047-1.193-.14-1.748a4.483 4.483 0 0 0-.5-1.474 2.698 2.698 0 0 0-1.003-1.017c-.426-.25-.974-.375-1.642-.375-.568 0-1.063.119-1.484.357-.42.238-.77.565-1.048.98a4.538 4.538 0 0 0-.621 1.437 7.158 7.158 0 0 0-.205 1.749c0 .708.053 1.349.158 1.922.105.574.287 1.066.547 1.475.26.408.603.723 1.03.942.427.22.956.33 1.587.33.63 0 1.159-.128 1.585-.384.427-.257.771-.596 1.03-1.017.26-.421.443-.906.548-1.456.105-.549.158-1.122.158-1.72zm2.338-.073c0 2.124-.474 3.766-1.42 4.926-.946 1.16-2.378 1.74-4.295 1.74-1.868 0-3.266-.56-4.194-1.676-.927-1.117-1.391-2.756-1.391-4.916 0-1.05.14-1.984.418-2.802.278-.818.667-1.51 1.169-2.078.5-.568 1.094-1.001 1.78-1.3.687-.3 1.444-.45 2.274-.45.927 0 1.746.15 2.458.45.711.299 1.301.732 1.771 1.3.47.567.826 1.257 1.068 2.069.241.812.362 1.724.362 2.737zM133.56 19.369c0 .17-.028.277-.084.32-.056.043-.17.064-.343.064h-1.41a.57.57 0 0 1-.316-.073c-.074-.049-.111-.153-.111-.311v-9.156c0-.427.052-.84.158-1.236A2.65 2.65 0 0 1 132 7.924c.26-.305.6-.55 1.02-.732.42-.183.947-.275 1.577-.275h5.103c.173 0 .281.034.324.1.044.068.066.175.066.321v1.136c0 .158-.025.268-.075.329-.05.061-.155.092-.315.092h-4.861c-.47 0-.802.1-.993.302-.192.201-.288.497-.288.888v9.284zM149.719 10.14l-1.633 2.783-3.656 6.043c-.185.305-.352.512-.5.622-.149.11-.39.165-.724.165h-.65c-.42 0-.704-.095-.852-.284-.15-.19-.223-.46-.223-.815V7.228c0-.134.027-.22.083-.256a.504.504 0 0 1 .27-.055h1.54c.135 0 .228.018.278.055.049.036.074.122.074.256v9.266h.074l1.54-2.564 3.748-6.207c.185-.318.352-.531.5-.641.15-.11.384-.165.706-.165h.668c.408 0 .69.089.844.265.155.178.232.461.232.852v11.408c0 .134-.028.22-.084.256a.502.502 0 0 1-.269.055h-1.54c-.136 0-.229-.019-.278-.055-.05-.037-.074-.122-.074-.256V10.14h-.074zM156.77 10.744c0 .513.167.943.5 1.29.334.349.879.523 1.633.523h2.746V8.93h-2.857c-.42 0-.761.062-1.02.183-.26.123-.464.272-.613.449-.148.177-.25.372-.306.586a2.347 2.347 0 0 0-.083.595zm4.898 3.68h-2.17c-.595 0-1.087.117-1.476.348-.39.233-.67.672-.845 1.319l-.908 3.37c-.038.145-.106.231-.204.255a1.2 1.2 0 0 1-.297.037h-1.633c-.16 0-.25-.04-.269-.12a.553.553 0 0 1 .01-.264l.983-3.626c.123-.452.306-.836.546-1.154.242-.317.622-.561 1.142-.732v-.018c-.705-.281-1.228-.7-1.568-1.255-.34-.555-.51-1.2-.51-1.932 0-.549.096-1.052.288-1.51.191-.458.466-.852.825-1.181.359-.33.788-.586 1.29-.77.5-.182 1.066-.274 1.697-.274h4.36c.396 0 .669.086.817.257.149.17.222.433.222.787v11.5c0 .134-.027.216-.083.246a.585.585 0 0 1-.27.046h-1.576c-.136 0-.232-.015-.288-.046-.055-.03-.083-.112-.083-.247v-5.035zM59.822 32.07c0 .12-.018.195-.055.227-.038.033-.121.048-.251.048h-1.002a.392.392 0 0 1-.23-.055c-.05-.036-.076-.11-.076-.22v-4.71c0-.292.03-.572.09-.837a1.71 1.71 0 0 1 .342-.708c.167-.206.396-.37.688-.494.293-.124.67-.186 1.134-.186h3.02c.12 0 .195.026.223.076.027.05.041.126.041.226v.742c0 .101-.016.174-.048.22-.033.046-.105.068-.216.068h-2.77c-.324 0-.554.067-.688.2-.134.133-.202.346-.202.638v4.766zM68.95 28.72c0-.44-.044-.808-.132-1.106a1.876 1.876 0 0 0-.385-.728 1.427 1.427 0 0 0-.615-.405 2.5 2.5 0 0 0-.81-.124c-.187 0-.408.019-.664.055a3.838 3.838 0 0 0-.636.138v4.367c.289.073.543.123.762.151.219.027.421.041.608.041.27 0 .519-.041.747-.124a1.44 1.44 0 0 0 .594-.405c.168-.187.298-.432.391-.734.093-.303.14-.678.14-1.126zm-3.242 6.18c0 .1-.019.164-.055.192-.037.027-.106.04-.207.04h-1.09a.372.372 0 0 1-.2-.04c-.042-.028-.062-.092-.062-.193v-9.064c0-.082.014-.146.042-.192a.434.434 0 0 1 .18-.137 5.69 5.69 0 0 1 1.469-.412c.514-.073 1.004-.11 1.468-.11.603 0 1.117.096 1.544.288.427.193.777.459 1.05.797.274.339.474.737.6 1.195.124.458.187.947.187 1.47 0 .512-.067.995-.202 1.448a3.556 3.556 0 0 1-.607 1.195c-.27.343-.61.613-1.019.81-.41.197-.889.295-1.437.295-.252 0-.51-.014-.775-.04a7.686 7.686 0 0 1-.886-.152v2.61zM74.906 33.513c-.213.631-.508 1.078-.883 1.339-.376.26-.856.39-1.44.39-.149 0-.332-.008-.55-.027a3.12 3.12 0 0 1-.675-.138c-.102-.019-.165-.047-.188-.084-.023-.037-.025-.097-.007-.18l.195-.847c.018-.091.049-.145.09-.158a.38.38 0 0 1 .188.007c.158.036.28.061.37.075.087.014.192.021.312.021.325 0 .582-.062.772-.184.19-.123.341-.347.453-.674l.292-.859h-.334a.894.894 0 0 1-.41-.082c-.107-.055-.202-.215-.286-.48l-2.087-6.305c-.037-.128.014-.192.153-.192h1.28c.102 0 .172.012.209.035.037.023.065.071.083.144l.947 3.158.723 2.486h.084l.779-2.513 1.03-3.118c.018-.073.044-.123.076-.15.033-.028.1-.042.202-.042h1.266c.14 0 .186.06.14.179l-2.784 8.212v-.013zM84.452 32.112c0 .101-.02.165-.062.192-.041.028-.113.041-.214.041H83.1c-.092 0-.159-.013-.2-.04-.041-.028-.062-.093-.062-.194v-5.644h-3.187v5.644c0 .101-.019.166-.055.193-.038.028-.107.041-.21.041h-1.085a.38.38 0 0 1-.201-.04c-.042-.028-.063-.092-.063-.193v-6.317c0-.156.046-.305.139-.446.092-.142.273-.214.542-.214h5.04c.268 0 .45.072.548.214a.78.78 0 0 1 .146.446v6.317zM91.994 32.112c0 .101-.02.165-.062.192-.041.028-.113.041-.214.041h-1.076a.373.373 0 0 1-.2-.04c-.041-.028-.062-.093-.062-.194v-5.644h-3.187v5.644c0 .101-.018.166-.055.193-.038.028-.107.041-.21.041h-1.084a.383.383 0 0 1-.202-.04c-.042-.028-.063-.092-.063-.193v-6.317c0-.156.046-.305.139-.446.092-.142.273-.214.542-.214h5.04c.268 0 .45.072.548.214.098.141.146.29.146.446v6.317zM2.268 6.864S10.433.448 15.725 0l15.573 24.92S6.35 34.767 0 44.466c0 0 4.687-12.236 25.401-20.89L14.061 3.133s-8.013 1.64-11.793 3.73zm15.877-4.698l1.34 2.16a61.927 61.927 0 0 1 1.371-.3L36.35 27.209C16.584 30.07 1.71 43.604.473 44.756l-.01.01-.008.003-.076.075.12-.072.112-.068c17.581-7.493 36.96-10.769 36.96-10.769l-2.824-3.865c4.709-1.178 7.495-1.5 7.495-1.5L22.53.9c-1.337.108-2.859.598-4.386 1.267zM2.473 16.827l3.283 8.33 7.63-9.172-10.913.842z" fill="#fff"/></svg>