<?xml version="1.0" encoding="utf-8"?><svg xmlns="http://www.w3.org/2000/svg" xmlns:xlink="http://www.w3.org/1999/xlink"><symbol viewBox="0 0 473.806 473.806" id="call" xmlns="http://www.w3.org/2000/svg"><path d="M374.456 293.506c-9.7-10.1-21.4-15.5-33.8-15.5-12.3 0-24.1 5.3-34.2 15.4l-31.6 31.5c-2.6-1.4-5.2-2.7-7.7-4-3.6-1.8-7-3.5-9.9-5.3-29.6-18.8-56.5-43.3-82.3-75-12.5-15.8-20.9-29.1-27-42.6 8.2-7.5 15.8-15.3 23.2-22.8 2.8-2.8 5.6-5.7 8.4-8.5 21-21 21-48.2 0-69.2l-27.3-27.3c-3.1-3.1-6.3-6.3-9.3-9.5-6-6.2-12.3-12.6-18.8-18.6-9.7-9.6-21.3-14.7-33.5-14.7s-24 5.1-34 14.7l-.2.2-34 34.3c-12.8 12.8-20.1 28.4-21.7 46.5-2.4 29.2 6.2 56.4 12.8 74.2 16.2 43.7 40.4 84.2 76.5 127.6 43.8 52.3 96.5 93.6 156.7 122.7 23 10.9 53.7 23.8 88 26 2.1.1 4.3.2 6.3.2 23.1 0 42.5-8.3 57.7-24.8.1-.2.3-.3.4-.5 5.2-6.3 11.2-12 17.5-18.1 4.3-4.1 8.7-8.4 13-12.9 9.9-10.3 15.1-22.3 15.1-34.6 0-12.4-5.3-24.3-15.4-34.3l-54.9-55.1zm35.8 105.3c-.1 0-.1.1 0 0-3.9 4.2-7.9 8-12.2 12.2-6.5 6.2-13.1 12.7-19.3 20-10.1 10.8-22 15.9-37.6 15.9-1.5 0-3.1 0-4.6-.1-29.7-1.9-57.3-13.5-78-23.4-56.6-27.4-106.3-66.3-147.6-115.6-34.1-41.1-56.9-79.1-72-119.9-9.3-24.9-12.7-44.3-11.2-62.6 1-11.7 5.5-21.4 13.8-29.7l34.1-34.1c4.9-4.6 10.1-7.1 15.2-7.1 6.3 0 11.4 3.8 14.6 7l.3.3c6.1 5.7 11.9 11.6 18 17.9 3.1 3.2 6.3 6.4 9.5 9.7l27.3 27.3c10.6 10.6 10.6 20.4 0 31-2.9 2.9-5.7 5.8-8.6 8.6-8.4 8.6-16.4 16.6-25.1 24.4-.2.2-.4.3-.5.5-8.6 8.6-7 17-5.2 22.7l.3.9c7.1 17.2 17.1 33.4 32.3 52.7l.1.1c27.6 34 56.7 60.5 88.8 80.8 4.1 2.6 8.3 4.7 12.3 6.7 3.6 1.8 7 3.5 9.9 5.3.4.2.8.5 1.2.7 3.4 1.7 6.6 2.5 9.9 2.5 8.3 0 13.5-5.2 15.2-6.9l34.2-34.2c3.4-3.4 8.8-7.5 15.1-7.5 6.2 0 11.3 3.9 14.4 7.3l.2.2 55.1 55.1c10.3 10.2 10.3 20.7.1 31.3zm-154.2-286.1c26.2 4.4 50 16.8 69 35.8s31.3 42.8 35.8 69c1.1 6.6 6.8 11.2 13.3 11.2.8 0 1.5-.1 2.3-.2 7.4-1.2 12.3-8.2 11.1-15.6-5.4-31.7-20.4-60.6-43.3-83.5s-51.8-37.9-83.5-43.3c-7.4-1.2-14.3 3.7-15.6 11s3.5 14.4 10.9 15.6zm217.2 96.3c-8.9-52.2-33.5-99.7-71.3-137.5s-85.3-62.4-137.5-71.3c-7.3-1.3-14.2 3.7-15.5 11-1.2 7.4 3.7 14.3 11.1 15.6 46.6 7.9 89.1 30 122.9 63.7 33.8 33.8 55.8 76.3 63.7 122.9 1.1 6.6 6.8 11.2 13.3 11.2.8 0 1.5-.1 2.3-.2 7.3-1.1 12.3-8.1 11-15.4z"/></symbol><symbol viewBox="0 0 32 32" id="fb" xmlns="http://www.w3.org/2000/svg"><path d="M32 32H0V0h32zm-15.21-6.516V16.01h2.798l.29-3.15h-3.09v-1.898c0-.907.087-1.284 1.394-1.284h1.8V6.19h-2.848c-3.36 0-4.163 1.57-4.163 4.426v2.243h-1.926v3.151h1.933v9.474h3.812" fill-rule="evenodd"/></symbol><symbol viewBox="0 0 32 32" id="ig" xmlns="http://www.w3.org/2000/svg"><path d="M32 32H0V0h32zm-9.603-7.924c.985 0 1.782-.8 1.78-1.784V9.739a1.777 1.777 0 0 0-1.78-1.775H9.827a1.777 1.777 0 0 0-1.78 1.775v12.553a1.78 1.78 0 0 0 1.78 1.784H22.4m-1.403-9.28c.82 3.177-1.578 6.274-4.859 6.274-3.28 0-5.68-3.097-4.858-6.273H9.87v6.914c0 .344.28.623.623.622h11.279a.621.621 0 0 0 .624-.622v-6.914H20.99m-4.85-1.642c4.162-.313 4.162 6.105 0 5.792-3.86-.001-3.86-5.794 0-5.792m3.773-3.376h1.902a.62.62 0 0 1 .623.623v1.896a.62.62 0 0 1-.623.622h-1.902a.621.621 0 0 1-.623-.622v-1.896c0-.345.279-.624.623-.623" fill-rule="evenodd"/></symbol><symbol viewBox="0 0 32 32" id="tw" xmlns="http://www.w3.org/2000/svg"><path d="M32 0v32H0V0zm-6.68 11.024a7.476 7.476 0 0 1-2.133.58 3.735 3.735 0 0 0 1.632-2.059c-.73.433-1.527.74-2.359.908-2.6-2.768-7.188-.314-6.33 3.385a10.52 10.52 0 0 1-7.655-3.885 3.727 3.727 0 0 0 1.15 4.966 3.753 3.753 0 0 1-1.683-.47v.052a3.723 3.723 0 0 0 2.98 3.64 3.91 3.91 0 0 1-.98.133 3.939 3.939 0 0 1-.698-.071 3.715 3.715 0 0 0 3.467 2.58 7.434 7.434 0 0 1-4.613 1.59 8.458 8.458 0 0 1-.886-.05c7.033 4.513 16.274-.546 16.26-8.903 0-.163 0-.316-.01-.48a7.475 7.475 0 0 0 1.859-1.916z" fill-rule="evenodd"/></symbol><symbol viewBox="0 0 32 32" id="vk" xmlns="http://www.w3.org/2000/svg"><path d="M32 32H0V0h32zm-9.913-13.39a3.161 3.161 0 0 0-.772-2.243 3.773 3.773 0 0 0-2.056-1.111v-.072a2.938 2.938 0 0 0 1.398-1.162 3.27 3.27 0 0 0 .51-1.805 3.195 3.195 0 0 0-.369-1.55 2.651 2.651 0 0 0-1.113-1.071 4.611 4.611 0 0 0-1.474-.49 18.349 18.349 0 0 0-2.314-.112h-4.895v13.859h5.546c.8.02 1.6-.066 2.378-.255a4.877 4.877 0 0 0 1.719-.877c.443-.347.803-.79 1.052-1.295a3.986 3.986 0 0 0 .391-1.815m-4.46-5.7a1.547 1.547 0 0 0-.172-.684 1.02 1.02 0 0 0-.537-.51 2.153 2.153 0 0 0-.816-.173c-.314 0-.781-.01-1.401-.01h-.242v2.936h.439c.594 0 1.013-.01 1.252-.02.257-.018.508-.084.741-.194.25-.107.453-.298.574-.54.11-.254.165-.529.16-.806m.875 5.64a1.704 1.704 0 0 0-.26-1.01 1.563 1.563 0 0 0-.782-.55 2.71 2.71 0 0 0-.87-.133c-.369-.01-.865-.01-1.484-.01h-.643v3.467h.188c.905 0 1.53-.01 1.878-.02a2.924 2.924 0 0 0 1.062-.246c.292-.117.536-.329.693-.601.148-.276.223-.585.218-.898" fill-rule="evenodd"/></symbol></svg>