<svg id="Слой_1" xmlns="http://www.w3.org/2000/svg" viewBox="0 0 500 244.6"><style>.st0{fill:#fff}</style><path class="st0" d="M6.2 142.1v18.5h1.7l14.3-18.5h6.4l-15.8 19.2c6.9.9 9.6 5.1 11.7 10.8 1.6 4.3 2.8 8.1 4.6 11.8h-5.8c-1.5-2.9-2.7-6.6-3.8-9.9-1.9-5.5-4.5-9.3-11.6-9.3H6.2v19.2H.8v-41.8h5.4zM61.6 168.7c0 11.1-7.7 15.9-14.9 15.9-8.1 0-14.4-6-14.4-15.4 0-10 6.6-15.9 14.9-15.9 8.5 0 14.4 6.2 14.4 15.4zm-23.8.3c0 6.6 3.7 11.5 9.1 11.5 5.2 0 9.1-4.9 9.1-11.7 0-5.1-2.5-11.5-9-11.5-6.4.1-9.2 6-9.2 11.7zM74.1 153.9V166h14.2v-12.1h5.5v30h-5.5v-13.6H74.1v13.6h-5.5v-30h5.5zM124.4 182.9c-1.4.7-4.6 1.7-8.6 1.7-9.1 0-14.9-6.1-14.9-15.3 0-9.2 6.3-16 16.1-16 3.2 0 6.1.8 7.6 1.6l-1.2 4.2c-1.3-.7-3.3-1.4-6.3-1.4-6.9 0-10.6 5.1-10.6 11.3 0 6.9 4.5 11.2 10.4 11.2 3.1 0 5.1-.7 6.7-1.4l.8 4.1zM152.4 153.9v4.3H143v25.7h-5.5v-25.7h-9.4v-4.3h24.3zM178.2 176.7c0 2.6.1 5.1.4 7.2h-4.9l-.4-3.8h-.2c-1.7 2.4-4.9 4.5-9.2 4.5-6.1 0-9.2-4.3-9.2-8.6 0-7.3 6.4-11.2 18-11.2v-.6c0-2.4-.7-6.9-6.8-6.9-2.9 0-5.8.8-7.9 2.2l-1.2-3.7c2.5-1.5 6.1-2.6 9.9-2.6 9.2 0 11.4 6.3 11.4 12.2v11.3zm-5.2-8.1c-6-.1-12.7.9-12.7 6.8 0 3.6 2.4 5.2 5.1 5.2 4 0 6.5-2.5 7.4-5 .2-.6.2-1.2.2-1.7v-5.3zM192.7 153.9V166h14.2v-12.1h5.5v30h-5.5v-13.6h-14.2v13.6h-5.5v-30h5.5zM241.7 153.9v4.3h-9.4v25.7h-5.5v-25.7h-9.4v-4.3h24.3zM251.9 153.9v12.6c0 4.7-.1 7.8-.4 12l.2.1c1.9-3.7 2.9-5.8 4.9-9.2l9.4-15.5h6.4v30h-5.2v-12.7c0-4.9.1-7.4.4-12.3h-.1c-2 3.9-3.2 6.3-5 9.4-2.9 4.7-6.2 10.4-9.4 15.7h-6.3v-30h5.1zM286.9 153.9V166h14.2v-12.1h5.5v30h-5.5v-13.6h-14.2v13.6h-5.5v-30h5.5zM343 168.7c0 11.1-7.8 15.9-14.9 15.9-8.1 0-14.4-6-14.4-15.4 0-10 6.6-15.9 14.9-15.9 8.5 0 14.4 6.2 14.4 15.4zm-23.8.3c0 6.6 3.7 11.5 9.1 11.5 5.2 0 9.1-4.9 9.1-11.7 0-5.1-2.5-11.5-9-11.5-6.4.1-9.2 6-9.2 11.7zM350 154.3c2.2-.4 6.1-.7 9.5-.7 5.1 0 13.4.9 13.4 7.5 0 3.7-2.9 6.1-6.3 6.8v.1c4.4.6 7.6 3 7.6 7.4 0 7.9-9.9 8.9-15.8 8.9-3.3 0-6.9-.2-8.5-.4v-29.6zm5.2 26.1c1.5.1 2.7.2 4.3.2 3.7 0 9.2-.8 9.2-5.2 0-4.3-4.4-5.3-9.5-5.3h-4v10.3zm.1-13.9h4.1c4 0 8.2-1.2 8.2-4.8 0-3-2.6-4.4-8.1-4.4-1.9 0-3 .1-4.2.2v9zM403 182.9c-1.4.7-4.6 1.7-8.6 1.7-9.1 0-14.9-6.1-14.9-15.3 0-9.2 6.3-16 16.1-16 3.2 0 6.1.8 7.6 1.6l-1.2 4.2c-1.3-.7-3.3-1.4-6.3-1.4-6.9 0-10.6 5.1-10.6 11.3 0 6.9 4.5 11.2 10.4 11.2 3.1 0 5.1-.7 6.7-1.4l.8 4.1zM415.1 153.9v13h1.3l11.2-13h6.6l-13 13.5c4.8.6 7.7 3.8 10.1 9.2.8 2 1.8 4.9 3.2 7.3h-5.7c-.8-1.3-1.8-3.7-2.8-6.1-2-4.8-4.8-7.1-9.9-7.1H415v13.2h-5.4v-30h5.5zM444.8 153.9v12.6c0 4.7-.1 7.8-.4 12l.2.1c1.9-3.7 2.9-5.8 4.9-9.2l9.4-15.5h6.4v30h-5.2v-12.7c0-4.9.1-7.4.4-12.3h-.1c-2 3.9-3.2 6.3-5 9.4-2.9 4.7-6.2 10.4-9.4 15.7h-6.3v-30h5.1zM479.6 153.9v12.6c0 4.7-.1 7.8-.4 12l.2.1c1.9-3.7 2.9-5.8 4.9-9.2l9.4-15.5h6.4v30h-5.2v-12.7c0-4.9.1-7.4.4-12.3h-.1c-2 3.9-3.2 6.3-5 9.4-2.9 4.7-6.2 10.4-9.4 15.7h-6.3v-30h5.1zm3.5-12.2c.2 2.7 1.5 4.7 4 4.7 2.7 0 3.9-2 4.2-4.7h3.9c-.3 5-3.5 7.7-8.2 7.7-5.5 0-7.6-3.5-7.8-7.7h3.9z"/><g><path class="st0" d="M1.2 195.9h2.9l2.3 6.6c.4 1 .9 2.6 1.2 3.6h.1c.3-1 1-3 1.6-4.5l2.1-5.7h2.9l.9 13.1H13l-.3-6.2c-.1-1.4-.2-3.1-.2-4.7h-.1c-.4 1.2-.7 2.2-1.5 4.2l-2.5 6.6H6.7l-2.3-6.5c-.4-1.2-1-3.1-1.3-4.3h-.2c-.1 1.5-.1 3.3-.2 4.7l-.3 6.2H.2l1-13.1zM24.6 195.9v5.3h6.2v-5.3h2.4V209h-2.4v-6h-6.2v5.9h-2.4v-13.1h2.4zM52.9 202.3c0 4.8-3.4 6.9-6.5 6.9-3.5 0-6.3-2.6-6.3-6.7 0-4.3 2.9-6.9 6.5-6.9 3.7 0 6.3 2.8 6.3 6.7zm-10.4.2c0 2.9 1.6 5 3.9 5s4-2.1 4-5.1c0-2.2-1.1-5-3.9-5s-4 2.6-4 5.1zM67.8 195.9v1.9h-5.7V209h-2.3v-13.1h8zM85.5 202.3c0 4.8-3.4 6.9-6.5 6.9-3.5 0-6.3-2.6-6.3-6.7 0-4.3 2.9-6.9 6.5-6.9 3.8 0 6.3 2.8 6.3 6.7zm-10.3.2c0 2.9 1.6 5 3.9 5s4-2.1 4-5.1c0-2.2-1.1-5-3.9-5s-4 2.6-4 5.1zM100.3 189.8v5.8c3.8.3 6.6 2.7 6.6 6.7 0 4.3-2.9 6.6-6.6 6.8v5.1h-2.2v-5.1c-3.8-.2-6.6-2.6-6.6-6.7 0-4.3 2.9-6.6 6.6-6.9v-5.8h2.2zm-2.1 7.5c-2.6.3-4.2 2.5-4.2 5.2s1.6 4.8 4.2 5.1v-10.3zm2.1 10.3c2.6-.4 4.2-2.5 4.2-5.2s-1.6-4.8-4.2-5.1v10.3zM114.2 195.9l2.8 7.7c.3.9.6 1.9.9 2.7h.1c.2-.8.5-1.8.8-2.7l2.6-7.7h2.5l-3.6 9.3c-1.7 4.5-2.9 6.7-4.5 8.2-1.2 1-2.3 1.4-2.9 1.5l-.6-2c.6-.2 1.4-.6 2.1-1.2.6-.5 1.4-1.4 2-2.6.1-.2.2-.4.2-.6s-.1-.3-.2-.6l-4.8-12h2.6zM132.4 195.9v5.3h6.2v-5.3h2.4V209h-2.4v-6h-6.2v5.9H130v-13.1h2.4zM151.2 195.9v5.7h.6l4.9-5.7h2.9l-5.7 5.9c2.1.2 3.4 1.6 4.4 4 .4.9.8 2.1 1.4 3.2h-2.5c-.4-.6-.8-1.6-1.2-2.7-.9-2.1-2.1-3.1-4.3-3.1h-.5v5.8h-2.3v-13.1h2.3zM168.1 195.9v11.2h6v-11.2h2.3v11.3h1.3l-.1 5.9h-1.9l-.1-4.1h-10v-13.1h2.5zM186.8 195.9v5.5c0 2.1-.1 3.4-.2 5.2h.1c.8-1.6 1.2-2.5 2.1-4l4.1-6.7h2.8V209h-2.3v-5.5c0-2.1.1-3.2.2-5.4h-.1c-.9 1.7-1.4 2.8-2.2 4.1-1.2 2-2.7 4.5-4.1 6.8h-2.8v-13.1h2.4zM215.4 202.3c0 4.8-3.4 6.9-6.5 6.9-3.5 0-6.3-2.6-6.3-6.7 0-4.3 2.9-6.9 6.5-6.9 3.7 0 6.3 2.8 6.3 6.7zm-10.4.2c0 2.9 1.6 5 3.9 5s4-2.1 4-5.1c0-2.2-1.1-5-3.9-5-2.7 0-4 2.6-4 5.1zM224.7 195.9v5.3h6.2v-5.3h2.4V209h-2.4v-6h-6.2v5.9h-2.4v-13.1h2.4zM250.3 205.8c0 1.1.1 2.2.2 3.1h-2.1l-.2-1.6h-.1c-.7 1-2.1 1.9-4 1.9-2.6 0-4-1.9-4-3.8 0-3.2 2.8-4.9 7.9-4.9v-.3c0-1.1-.3-3-3-3-1.2 0-2.5.4-3.4 1l-.5-1.6c1.1-.7 2.7-1.1 4.3-1.1 4 0 5 2.7 5 5.3v5zm-2.3-3.5c-2.6-.1-5.5.4-5.5 2.9 0 1.6 1 2.3 2.2 2.3 1.7 0 2.8-1.1 3.2-2.2.1-.3.1-.5.1-.8v-2.2zM268.1 195.9V209h-2.4v-11.2h-4.5v3.3c0 3.7-.4 6.1-2.1 7.2-.6.5-1.4.8-2.6.8l-.2-1.9c.5-.1 1-.3 1.3-.5 1.2-.9 1.3-2.7 1.3-5.6v-5.2h9.2zM278.3 195.9v4.4c.6-.1 1.5-.1 2.2-.1 2.9 0 6 .9 6 4.4 0 1.3-.5 2.3-1.4 3-1.4 1.2-3.8 1.5-5.7 1.5-1.3 0-2.5-.1-3.5-.2v-13h2.4zm-.1 11.4c.5.1 1 .1 1.8.1 1.8 0 4.1-.6 4.1-2.8 0-2.3-2.4-2.8-4.2-2.8-.6 0-1.1.1-1.7.2v5.3zM295.7 195.9v5.3h6.2v-5.3h2.4V209h-2.4v-6h-6.2v5.9h-2.4v-13.1h2.4zM314.4 195.9v4.4c.5-.1 1.2-.2 2.1-.2 2.8 0 5.7 1.2 5.7 4.4 0 1.4-.5 2.3-1.4 3-1.4 1.2-3.5 1.5-5.3 1.5-1.3 0-2.5-.1-3.5-.2v-13h2.4zm0 11.4c.5.1 1 .1 1.6.1 1.8 0 3.8-.7 3.8-2.8 0-2.1-1.9-2.8-3.7-2.8-.7 0-1.3.1-1.8.2v5.3zm11.8-11.4V209h-2.3v-13.1h2.3zM336.3 195.9v5.5c0 2.1-.1 3.4-.2 5.2h.1c.8-1.6 1.2-2.5 2.1-4l4.1-6.7h2.8V209h-2.3v-5.5c0-2.1.1-3.2.2-5.4h-.1c-.9 1.7-1.4 2.8-2.2 4.1-1.2 2-2.7 4.5-4.1 6.8H334v-13.1h2.3zm1.5-5.3c.1 1.2.6 2.1 1.7 2.1 1.2 0 1.7-.9 1.8-2.1h1.7c-.1 2.2-1.5 3.3-3.6 3.3-2.4 0-3.3-1.5-3.4-3.3h1.8zM365.1 195.9v5.7h.6l4.9-5.7h2.9l-5.7 5.9c2.1.2 3.4 1.6 4.4 4 .4.9.8 2.1 1.4 3.2h-2.5c-.4-.6-.8-1.6-1.2-2.7-.9-2.1-2.1-3.1-4.3-3.1h-.5v5.8h-2.3v-13.1h2.3zM391.4 202.3c0 4.8-3.4 6.9-6.5 6.9-3.5 0-6.3-2.6-6.3-6.7 0-4.3 2.9-6.9 6.5-6.9 3.7 0 6.3 2.8 6.3 6.7zm-10.4.2c0 2.9 1.6 5 3.9 5s4-2.1 4-5.1c0-2.2-1.1-5-3.9-5s-4 2.6-4 5.1zM398.5 195.9h2.9l2.3 6.6c.4 1 .9 2.6 1.2 3.6h.1c.3-1 1-3 1.6-4.5l2.1-5.7h2.9l.9 13.1h-2.3l-.3-6.2c-.1-1.4-.2-3.1-.2-4.7h-.1c-.4 1.2-.7 2.2-1.5 4.2l-2.5 6.6H404l-2.3-6.5c-.4-1.2-1-3.1-1.3-4.3h-.1c-.1 1.5-.1 3.3-.2 4.7l-.4 6.2h-2.2l1-13.1zM430.4 195.9V209H428v-11.2h-6.1V209h-2.4v-13.1h10.9zM448.1 195.9V209h-2.4v-11.2h-4.5v3.3c0 3.7-.4 6.1-2.1 7.2-.6.5-1.4.8-2.6.8l-.2-1.9c.5-.1 1-.3 1.3-.5 1.2-.9 1.3-2.7 1.3-5.6v-5.2h9.2zM457.3 202.9c.1 3.2 2.1 4.5 4.5 4.5 1.7 0 2.8-.3 3.6-.7l.4 1.7c-.8.4-2.3.8-4.4.8-4 0-6.4-2.7-6.4-6.6 0-3.9 2.3-7 6.1-7 4.3 0 5.4 3.7 5.4 6.1 0 .5 0 .8-.1 1.1h-9.1zm7-1.7c0-1.5-.6-3.8-3.3-3.8-2.4 0-3.5 2.2-3.6 3.8h6.9zM475.9 195.9v5.7h.6l4.9-5.7h2.9l-5.7 5.9c2.1.2 3.4 1.6 4.4 4 .4.9.8 2.1 1.4 3.2h-2.5c-.4-.6-.8-1.6-1.2-2.7-.9-2.1-2.1-3.1-4.3-3.1h-.5v5.8h-2.3v-13.1h2.3zM499.6 208.5c-.6.3-2 .8-3.8.8-3.9 0-6.5-2.7-6.5-6.7s2.8-7 7-7c1.4 0 2.6.4 3.3.7l-.5 1.8c-.6-.3-1.5-.6-2.8-.6-3 0-4.6 2.2-4.6 4.9 0 3 1.9 4.9 4.5 4.9 1.3 0 2.2-.3 2.9-.6l.5 1.8z"/></g><path class="st0" d="M149 48.9l351 65.6-351-32.4L0 122.3"/><path class="st0" d="M149 0l351 98.7-351-64.6L0 114.5"/><path class="st0" d="M149 97.7l351 32.5-351-3.2-149 2.4"/></svg>