<?xml version="1.0" encoding="utf-8"?><svg xmlns="http://www.w3.org/2000/svg" xmlns:xlink="http://www.w3.org/1999/xlink"><symbol viewBox="0 0 16 16" stroke-width="3" display="inline-block" overflow="visible" id="burger" xmlns="http://www.w3.org/2000/svg"><path d="M0 2.5h16M0 8h16M0 13.5h16"/></symbol><symbol viewBox="0 0 32 32" id="search" xmlns="http://www.w3.org/2000/svg"><path d="M12 0A12 12 0 0 0 0 12a12 12 0 0 0 12 12 12 12 0 0 0 6.5-1.75L28 32l4-4-9.75-9.5A12 12 0 0 0 24 12 12 12 0 0 0 12 0m0 4a8 8 0 0 1 0 16 8 8 0 0 1 0-16"/></symbol></svg>