<svg xmlns="http://www.w3.org/2000/svg" viewBox="0 0 94.16 91.99"><defs><style>.cls-1{fill:#826550}</style></defs><title>Ресурс 1</title><g id="Слой_2" data-name="Слой 2"><g id="Layer_1" data-name="Layer 1"><circle class="cls-1" cx="47.08" cy="17.28" r="9.11"/><path class="cls-1" d="M67.46 26.38H26.71a2.82 2.82 0 0 0-2.82 2.82v4.47a2.83 2.83 0 0 0 2.82 2.82h.83v45.39h-.83a2.83 2.83 0 0 0-2.82 2.82v4.47A2.83 2.83 0 0 0 26.71 92h40.75a2.83 2.83 0 0 0 2.82-2.82V84.7a2.83 2.83 0 0 0-2.82-2.82h-.83V36.49h.83a2.83 2.83 0 0 0 2.82-2.82V29.2a2.83 2.83 0 0 0-2.82-2.82zm-33.8 10.11h13.2l-13.2 13.2zM60.5 81.88H47l13.5-13.47zm0-28.72L33.66 80V64.93L60.5 38.09z"/><path class="cls-1" d="M47.08 0a47.08 47.08 0 0 0-28.19 84.79v-.09a7.77 7.77 0 0 1 1.18-4.1 43.08 43.08 0 1 1 54 0 7.77 7.77 0 0 1 1.18 4.1v.09A47.08 47.08 0 0 0 47.08 0z"/></g></g></svg>