<svg xmlns="http://www.w3.org/2000/svg" viewBox="0 0 94.94 94.16"><defs><style>.cls-1{fill:#826550;fill-rule:evenodd}</style></defs><title>Ресурс 1</title><g id="Слой_2" data-name="Слой 2"><g id="Layer_2" data-name="Layer 2"><path class="cls-1" d="M90.28 28.39a47.2 47.2 0 0 0-8.51-13.1l-2 3.78a43.1 43.1 0 0 1 6.42 10c1.37-.23 2.73-.45 4.09-.68zM90 43.56c.09 1.16.15 2.33.15 3.52a43.08 43.08 0 0 1-43.07 43.08c-.79 0-1.57 0-2.34-.07a7.5 7.5 0 0 1 .26 1.85 6.58 6.58 0 0 1-.4 2.16c.84 0 1.68.07 2.53.07a47 47 0 0 0 46.62-53.25A38.63 38.63 0 0 1 90 43.56zM4 47.08A43.07 43.07 0 0 1 68.65 9.79c1.08-.86 2.21-1.74 3.36-2.62a47.07 47.07 0 1 0-42.35 83.64 18.19 18.19 0 0 1-.57-4.58A43.08 43.08 0 0 1 4 47.08z"/><path class="cls-1" d="M38.77 84.91c7.74-2.72 16.31-9.66 14.54-19.83-.9-5.15-4.48-5-7.27-9.25 14.44-12 24.21-28.66 33-46.26h-2c-7.45 5.66-21.91 17-28.42 26.44-2.6 3.78-4.59 9.31-7.27 13.88-4.54 7.75-15.12 21.23-6.61 31.06-1.38 4.62-1.2 12.39 4 12.56 3.26-1.74-1.36-4.62.03-8.6zm8.31-38.83a2.58 2.58 0 1 1-2.58 2.58 2.58 2.58 0 0 1 2.58-2.58zM36.79 75c-1.86-9 7-16.95 11.9-9.25.25 7.41-6.19 15.76-11.9 9.25z"/><path class="cls-1" d="M56 51.2c14-5.2 30.58-7.75 39-18.5-9.41 1.38-18.12 3.47-27.76 4.63C65.05 43.56 60.16 47 56 51.2zM12.33 40c-4.22 12.22 8.43 16 21.81 13.85 3.78-4.81 5.85-10 2-15.86-4.91-7.47-20.92-6.38-23.81 2.01zm5.29 7.27C12.5 36.4 30.51 36.17 32.16 42c2.18 7.58-9.1 8-14.54 5.24z"/></g></g></svg>